<svg width="20" height="20" viewBox="0 0 20 20" fill="none" xmlns="http://www.w3.org/2000/svg">
<path d="M12.4625 0H7.40223C3.32473 0 0 3.3509 0 7.46048V12.5395C0 16.6491 3.32473 20 7.40223 20H12.4416C16.5191 20 19.8438 16.6491 19.8438 12.5395V7.46048C19.8647 3.3509 16.54 0 12.4625 0ZM14.9927 8.13488L9.28416 13.9094C8.99141 14.2044 8.51048 14.2044 8.21773 13.9094L4.87209 10.5374C4.57935 10.2424 4.57935 9.75764 4.87209 9.46259L5.81305 8.51423C6.1058 8.21918 6.58673 8.21918 6.87948 8.51423L8.51048 10.1581C8.63594 10.2845 8.86595 10.2845 8.99141 10.1581L12.9853 6.13277C13.278 5.83772 13.759 5.83772 14.0517 6.13277L14.9927 7.08114C15.2854 7.37618 15.2854 7.83983 14.9927 8.13488Z" fill="black"/>
<path d="M12.4625 0H7.40223C3.32473 0 0 3.3509 0 7.46048V12.5395C0 16.6491 3.32473 20 7.40223 20H12.4416C16.5191 20 19.8438 16.6491 19.8438 12.5395V7.46048C19.8647 3.3509 16.54 0 12.4625 0ZM14.9927 8.13488L9.28416 13.9094C8.99141 14.2044 8.51048 14.2044 8.21773 13.9094L4.87209 10.5374C4.57935 10.2424 4.57935 9.75764 4.87209 9.46259L5.81305 8.51423C6.1058 8.21918 6.58673 8.21918 6.87948 8.51423L8.51048 10.1581C8.63594 10.2845 8.86595 10.2845 8.99141 10.1581L12.9853 6.13277C13.278 5.83772 13.759 5.83772 14.0517 6.13277L14.9927 7.08114C15.2854 7.37618 15.2854 7.83983 14.9927 8.13488Z" fill="#869BBF"/>
</svg>
